<mxfile host="app.diagrams.net" agent="Mozilla/5.0 (Windows NT 10.0; Win64; x64) AppleWebKit/537.36 (KHTML, like Gecko) Chrome/139.0.0.0 Safari/537.36" version="28.0.9">
  <diagram name="structure" id="Oc0JnGKfON8GWQPidHeL">
    <mxGraphModel dx="1281" dy="527" grid="1" gridSize="10" guides="1" tooltips="1" connect="1" arrows="1" fold="1" page="1" pageScale="1" pageWidth="827" pageHeight="1169" math="0" shadow="0">
      <root>
        <mxCell id="0" />
        <mxCell id="1" parent="0" />
        <mxCell id="8EK3APD2QCrfIBj3EhLv-32" value="" style="rounded=0;whiteSpace=wrap;html=1;fillColor=#95FFFF;" vertex="1" parent="1">
          <mxGeometry x="434" y="70" width="230" height="440" as="geometry" />
        </mxCell>
        <mxCell id="8EK3APD2QCrfIBj3EhLv-25" style="edgeStyle=orthogonalEdgeStyle;rounded=0;orthogonalLoop=1;jettySize=auto;html=1;entryX=0;entryY=0;entryDx=0;entryDy=0;strokeColor=#1A1A1A;curved=1;" edge="1" parent="1" source="8EK3APD2QCrfIBj3EhLv-1" target="8EK3APD2QCrfIBj3EhLv-3">
          <mxGeometry relative="1" as="geometry" />
        </mxCell>
        <mxCell id="8EK3APD2QCrfIBj3EhLv-26" value="use" style="edgeLabel;html=1;align=center;verticalAlign=middle;resizable=0;points=[];" vertex="1" connectable="0" parent="8EK3APD2QCrfIBj3EhLv-25">
          <mxGeometry x="-0.0197" y="-2" relative="1" as="geometry">
            <mxPoint as="offset" />
          </mxGeometry>
        </mxCell>
        <mxCell id="8EK3APD2QCrfIBj3EhLv-1" value="Me" style="shape=umlActor;verticalLabelPosition=bottom;verticalAlign=top;html=1;outlineConnect=0;" vertex="1" parent="1">
          <mxGeometry x="190" y="10" width="20" height="40" as="geometry" />
        </mxCell>
        <mxCell id="8EK3APD2QCrfIBj3EhLv-9" style="edgeStyle=orthogonalEdgeStyle;rounded=0;orthogonalLoop=1;jettySize=auto;html=1;" edge="1" parent="1" source="8EK3APD2QCrfIBj3EhLv-3" target="8EK3APD2QCrfIBj3EhLv-4">
          <mxGeometry relative="1" as="geometry" />
        </mxCell>
        <mxCell id="8EK3APD2QCrfIBj3EhLv-10" style="edgeStyle=orthogonalEdgeStyle;rounded=0;orthogonalLoop=1;jettySize=auto;html=1;" edge="1" parent="1" source="8EK3APD2QCrfIBj3EhLv-3" target="8EK3APD2QCrfIBj3EhLv-5">
          <mxGeometry relative="1" as="geometry" />
        </mxCell>
        <mxCell id="8EK3APD2QCrfIBj3EhLv-3" value="end points" style="ellipse;whiteSpace=wrap;html=1;fillColor=#99FF99;" vertex="1" parent="1">
          <mxGeometry x="360" y="20" width="76" height="50" as="geometry" />
        </mxCell>
        <mxCell id="8EK3APD2QCrfIBj3EhLv-4" value="notifications" style="rounded=1;whiteSpace=wrap;html=1;fillColor=#FFFF00;" vertex="1" parent="1">
          <mxGeometry x="260" y="90" width="90" height="40" as="geometry" />
        </mxCell>
        <mxCell id="8EK3APD2QCrfIBj3EhLv-27" style="edgeStyle=orthogonalEdgeStyle;rounded=0;orthogonalLoop=1;jettySize=auto;html=1;entryX=0;entryY=0.5;entryDx=0;entryDy=0;" edge="1" parent="1" source="8EK3APD2QCrfIBj3EhLv-5" target="8EK3APD2QCrfIBj3EhLv-13">
          <mxGeometry relative="1" as="geometry" />
        </mxCell>
        <mxCell id="8EK3APD2QCrfIBj3EhLv-28" style="edgeStyle=orthogonalEdgeStyle;rounded=0;orthogonalLoop=1;jettySize=auto;html=1;entryX=0;entryY=0.5;entryDx=0;entryDy=0;" edge="1" parent="1" source="8EK3APD2QCrfIBj3EhLv-5" target="8EK3APD2QCrfIBj3EhLv-14">
          <mxGeometry relative="1" as="geometry" />
        </mxCell>
        <mxCell id="8EK3APD2QCrfIBj3EhLv-29" style="edgeStyle=orthogonalEdgeStyle;rounded=0;orthogonalLoop=1;jettySize=auto;html=1;entryX=0;entryY=0.5;entryDx=0;entryDy=0;" edge="1" parent="1" source="8EK3APD2QCrfIBj3EhLv-5" target="8EK3APD2QCrfIBj3EhLv-15">
          <mxGeometry relative="1" as="geometry" />
        </mxCell>
        <mxCell id="8EK3APD2QCrfIBj3EhLv-30" style="edgeStyle=orthogonalEdgeStyle;rounded=0;orthogonalLoop=1;jettySize=auto;html=1;entryX=0;entryY=0.5;entryDx=0;entryDy=0;" edge="1" parent="1" source="8EK3APD2QCrfIBj3EhLv-5" target="8EK3APD2QCrfIBj3EhLv-16">
          <mxGeometry relative="1" as="geometry" />
        </mxCell>
        <mxCell id="8EK3APD2QCrfIBj3EhLv-31" style="edgeStyle=orthogonalEdgeStyle;rounded=0;orthogonalLoop=1;jettySize=auto;html=1;entryX=0;entryY=0.5;entryDx=0;entryDy=0;" edge="1" parent="1" source="8EK3APD2QCrfIBj3EhLv-5" target="8EK3APD2QCrfIBj3EhLv-17">
          <mxGeometry relative="1" as="geometry" />
        </mxCell>
        <mxCell id="8EK3APD2QCrfIBj3EhLv-5" value="recipients" style="rounded=1;whiteSpace=wrap;html=1;fillColor=#FFFF00;" vertex="1" parent="1">
          <mxGeometry x="440" y="90" width="90" height="40" as="geometry" />
        </mxCell>
        <mxCell id="8EK3APD2QCrfIBj3EhLv-11" value="/&lt;span style=&quot;background-color: transparent; color: light-dark(rgb(0, 0, 0), rgb(255, 255, 255));&quot;&gt;api&lt;/span&gt;" style="text;html=1;align=center;verticalAlign=middle;whiteSpace=wrap;rounded=0;" vertex="1" parent="1">
          <mxGeometry x="368" y="70" width="60" height="30" as="geometry" />
        </mxCell>
        <mxCell id="8EK3APD2QCrfIBj3EhLv-13" value="create new recipient&lt;div&gt;&lt;b&gt;POST &lt;/b&gt;(request body)&lt;/div&gt;" style="rounded=1;whiteSpace=wrap;html=1;fillColor=#9AC7BF;" vertex="1" parent="1">
          <mxGeometry x="530" y="170" width="120" height="50" as="geometry" />
        </mxCell>
        <mxCell id="8EK3APD2QCrfIBj3EhLv-14" value="get all recipients&lt;div&gt;&lt;b&gt;GET&lt;/b&gt;&lt;/div&gt;" style="rounded=1;whiteSpace=wrap;html=1;fillColor=#9AC7BF;" vertex="1" parent="1">
          <mxGeometry x="530" y="240" width="120" height="50" as="geometry" />
        </mxCell>
        <mxCell id="8EK3APD2QCrfIBj3EhLv-15" value="get a specific recipient&lt;div&gt;&lt;div&gt;&lt;b&gt;GET &lt;/b&gt;(path variable id)&lt;/div&gt;&lt;/div&gt;" style="rounded=1;whiteSpace=wrap;html=1;fillColor=#9AC7BF;" vertex="1" parent="1">
          <mxGeometry x="530" y="310" width="120" height="50" as="geometry" />
        </mxCell>
        <mxCell id="8EK3APD2QCrfIBj3EhLv-16" value="update a recipients&lt;div&gt;&lt;b&gt;PUT&amp;nbsp;&lt;/b&gt;(path variable id and request body)&lt;/div&gt;" style="rounded=1;whiteSpace=wrap;html=1;fillColor=#9AC7BF;" vertex="1" parent="1">
          <mxGeometry x="530" y="380" width="120" height="50" as="geometry" />
        </mxCell>
        <mxCell id="8EK3APD2QCrfIBj3EhLv-17" value="delete a recipient&lt;div&gt;&lt;div&gt;&lt;b&gt;DELETE&amp;nbsp;&lt;/b&gt;(path variable id)&lt;/div&gt;&lt;/div&gt;" style="rounded=1;whiteSpace=wrap;html=1;fillColor=#9AC7BF;" vertex="1" parent="1">
          <mxGeometry x="530" y="450" width="120" height="50" as="geometry" />
        </mxCell>
        <mxCell id="8EK3APD2QCrfIBj3EhLv-33" value="&lt;font style=&quot;color: rgb(51, 51, 255);&quot;&gt;&lt;b style=&quot;&quot;&gt;controller.notificationController&lt;/b&gt;&lt;/font&gt;" style="text;html=1;align=center;verticalAlign=middle;resizable=0;points=[];autosize=1;strokeColor=none;fillColor=none;" vertex="1" parent="1">
          <mxGeometry x="479" y="46" width="200" height="30" as="geometry" />
        </mxCell>
        <mxCell id="8EK3APD2QCrfIBj3EhLv-37" style="edgeStyle=orthogonalEdgeStyle;rounded=0;orthogonalLoop=1;jettySize=auto;html=1;exitX=1;exitY=0.5;exitDx=0;exitDy=0;entryX=0;entryY=0;entryDx=0;entryDy=0;" edge="1" parent="1">
          <mxGeometry relative="1" as="geometry">
            <mxPoint x="428" y="193" as="sourcePoint" />
            <mxPoint x="530" y="183" as="targetPoint" />
            <Array as="points">
              <mxPoint x="510" y="183" />
              <mxPoint x="510" y="183" />
            </Array>
          </mxGeometry>
        </mxCell>
        <mxCell id="8EK3APD2QCrfIBj3EhLv-34" value="recipient create request &lt;b&gt;DTO&lt;/b&gt;" style="rounded=1;whiteSpace=wrap;html=1;fillColor=#FF6666;" vertex="1" parent="1">
          <mxGeometry x="318" y="164" width="110" height="40" as="geometry" />
        </mxCell>
        <mxCell id="8EK3APD2QCrfIBj3EhLv-39" style="edgeStyle=orthogonalEdgeStyle;rounded=0;orthogonalLoop=1;jettySize=auto;html=1;exitX=1;exitY=0.25;exitDx=0;exitDy=0;entryX=0;entryY=0.25;entryDx=0;entryDy=0;" edge="1" parent="1" source="8EK3APD2QCrfIBj3EhLv-38" target="8EK3APD2QCrfIBj3EhLv-16">
          <mxGeometry relative="1" as="geometry" />
        </mxCell>
        <mxCell id="8EK3APD2QCrfIBj3EhLv-38" value="recipient update request &lt;b&gt;DTO&lt;/b&gt;" style="rounded=1;whiteSpace=wrap;html=1;fillColor=#FF6666;" vertex="1" parent="1">
          <mxGeometry x="318" y="382" width="110" height="40" as="geometry" />
        </mxCell>
      </root>
    </mxGraphModel>
  </diagram>
</mxfile>
